<?xml version="1.0" encoding="utf-8"?>
<!-- Generator: Adobe Illustrator 23.0.1, SVG Export Plug-In . SVG Version: 6.00 Build 0)  -->
<svg version="1.1"
	 id="svg2" xmlns:cc="http://creativecommons.org/ns#" xmlns:dc="http://purl.org/dc/elements/1.1/" xmlns:inkscape="http://www.inkscape.org/namespaces/inkscape" xmlns:rdf="http://www.w3.org/1999/02/22-rdf-syntax-ns#" xmlns:sodipodi="http://sodipodi.sourceforge.net/DTD/sodipodi-0.dtd" xmlns:svg="http://www.w3.org/2000/svg"
	 xmlns="http://www.w3.org/2000/svg" xmlns:xlink="http://www.w3.org/1999/xlink" x="0px" y="0px" viewBox="0 0 225.4 315" width="240" height="336"
	 style="enable-background:new 0 0 225.4 315;" xml:space="preserve">
<style type="text/css">
	.st0{fill:#1E8C8C;}
	.st1{fill:#EDEDED;}
	.st2{fill:#F39200;}
	.st3{stroke:#000000;stroke-width:0.4;stroke-miterlimit:10;}
</style>
<defs>
	
	
		<inkscape:perspective  id="perspective4442" inkscape:persp3d-origin="104 : 101 : 1" inkscape:vp_x="0 : 151.5 : 1" inkscape:vp_y="0 : 1000 : 0" inkscape:vp_z="208 : 151.5 : 1" sodipodi:type="inkscape:persp3d">
		</inkscape:perspective>
</defs>
<sodipodi:namedview  bordercolor="#666666" borderopacity="1.0" gridtolerance="10.0" guidetolerance="10.0" height="303px" id="base" inkscape:current-layer="svg2" inkscape:cx="104.42505" inkscape:cy="151.66687" inkscape:pageopacity="0.0" inkscape:pageshadow="2" inkscape:showpageshadow="false" inkscape:window-height="573" inkscape:window-maximized="0" inkscape:window-width="791" inkscape:window-x="236" inkscape:window-y="156" inkscape:zoom="1.2428555" objecttolerance="10.0" pagecolor="#ffffff" showgrid="false" width="208px">
	</sodipodi:namedview>
<path class="st0" d="M216.3,0H9C4,0,0,4.1,0,9.1V306c0,5,4.1,9.1,9.1,9.1h207.3c5,0,9.1-4.1,9.1-9.1V9.1C225.4,4.1,221.3,0,216.3,0z
	"/>
<path d="M216.3,0H9C4,0,0,4.1,0,9.1V306c0,5,4.1,9.1,9.1,9.1h207.3c5,0,9.1-4.1,9.1-9.1V9.1C225.4,4.1,221.3,0,216.3,0z
	 M220.4,300.9c0,5-4.1,9-9,9H14c-5,0-9-4.1-9-9V14.1c0-5,4.1-9,9-9h197.3c5,0,9,4.1,9,9L220.4,300.9L220.4,300.9z"/>
<path d="M220.4,103.3c0,0-0.1,0-0.1,0.1c-0.2-0.1-0.3-0.2-0.4-0.3c0.2-0.4,0.4-0.8,0.5-1.2v-1.8c-0.2-0.4-0.4-0.8-0.6-1.1
	c-0.3,0.1-0.6,0.3-0.9,0.5c-0.1,0-0.2-0.1-0.3-0.1c0.3-0.8,0.6-1.5,0.9-2.3c-0.1,0-0.1-0.1-0.2-0.1c-0.4,0.2-0.7,0.5-1.2,0.8
	c0.4-1.8,0.5-3.4-0.5-4.8c-0.5,1.8-1,3.5-1.5,5.3c-0.2,0-0.3-0.1-0.4-0.1c0.3,0.4,0.5,0.8,0.8,1.2c-0.6,0.7-1.1,1.3-1.7,1.9
	c0.5,0.6,0.9,1.1,1.5,1.7c-0.7,0-1.2,0-1.7,0c0.3,0.9,0.5,1.9,0.8,2.8c-0.2,0-0.6-0.1-1-0.1c-0.2,1.5,1.3,1.3,1.9,2.2
	c-0.9-0.2-1.9-0.4-3.2-0.7c0.8,1.1,1.4,1.9,2,2.7c0,0.1-0.1,0.1-0.1,0.2c-0.7-0.4-1.4-0.7-2.1-1.1c-0.1,0.2-0.2,0.3-0.3,0.4
	c1,1,2,2,3.1,3.2c-1.4-0.1-2.6-2-3.6-0.1c0.3,1.8,0.3,3.7,2.6,4.3c0,0.2-0.1,0.3-0.1,0.4c-0.9,0.3-1.8,0.5-2.9,0.8
	c0.9,1.3,1.9,2.6,2.8,4c-0.1,0-0.1,0.1-0.2,0.2c-1.1-0.6-2.3-1.3-3.8-2.1c0.7,1.3,1.2,2.2,1.7,3.1c-0.1,0-0.1,0.1-0.2,0.2
	c-0.8-0.3-1.5-0.6-1.9-0.8c-0.4-1.4-0.6-2.6-0.9-3.7c-0.1,0-0.2-0.1-0.3-0.2c-0.1,0.3-0.3,0.7-0.6,1.3c-0.1-1.3-0.2-2.2-0.3-3.3
	c-0.4,0.3-0.6,0.5-0.7,0.6c-0.3-1.9-0.5-3.8-1-5.7c-1-4-2.2-8.1-3.3-12.1c-0.1-0.2-0.3-0.4-0.3-0.4c-0.4,1.1-0.9,2.1-1.3,3.2
	c-0.2,0.4,0,0.9,0.1,1.3c0.2,0.7,0.4,1.4,0.8,2.5c-0.7-0.4-1.2-0.7-1.6-0.9c-0.4,1.7-1.1,2.6-2.9,3.9c-0.6,0.4-1.1,0.9-1.7,1.2
	c-0.3,0.1-0.8-0.2-1.2-0.3c0.1-0.4,0.2-0.8,0.4-1.1c0.7-0.8,1.6-1.6,2.4-2.4c0.3-0.3,0.4-0.6,0.8-1.2c-2,0.6-3.4,2.6-5.6,1.1
	c0.8-1.2,1.5-2.4,2.3-3.6c-0.4-0.2-0.7-0.4-1-0.6c0.1-0.5,0.2-1.1,0.4-1.6c0.1-0.3,0.5-0.7,0.4-0.8c-0.4-0.3-0.8-0.6-1.2-0.7
	c-0.5-0.1-1.1,0-1.7,0c0-0.1,0-0.2,0-0.3c0.7-0.2,1.3-0.4,2-0.6c-0.1-0.6-0.2-1.2-0.3-1.9c-0.7,0.1-1.3,0.3-2,0.5
	c0.2-0.6,0.3-1.1,0.5-2c-0.8,0.3-1.4,0.5-2.3,0.9c0.2-0.9,0.4-1.6,0.6-2.4c-0.5,0.1-0.9,0.2-1.2,0.3c-0.4-1.3-0.7-2.5-1.1-3.7
	c-0.1,0-0.3,0-0.4,0c-0.4,1.9-0.4,3.9-0.2,5.9c-0.6-0.3-1.2-0.5-1.7-0.7c-0.1,0.1-0.2,0.2-0.3,0.3c0.3,0.5,0.6,1,0.9,1.7
	c-0.2,0.1-0.5,0.4-0.9,0.7c0.4,0.4,0.8,0.8,1.2,1.3c-0.6,0.3-1,0.5-1.6,0.7c0.7,0.9,2.1,1.3,1.5,2.7c-0.6-0.2-1.2-0.5-1.8-0.6
	c-0.2,0-0.7,0-0.8,0.2c-0.2,0.2-0.1,0.7,0.1,0.9c0.5,0.7,1.2,1.3,1.8,2c0.3,0.4,0.4,0.8,0.6,1.2c-1.4,1.2-2.6,1.1-4,0.2
	c-0.7-0.4-1.5-0.5-2.3-0.7c-0.1,0.1-0.1,0.3-0.2,0.4c0.6,0.5,1.3,1,1.9,1.5c0.1,0.2,0.1,0.5,0.1,0.7c-0.3,0-0.6,0.1-0.7,0
	c-1.7-1.3-3.4-2.6-5-4c-0.2-0.2-0.2-1,0-1.3c1.9-3.2,3.8-6.5,5.7-9.7c4.7-7.9,9.3-15.9,14-23.8c0.1-0.2,0.3-0.4,0.5-0.7
	c0.9,1.4,1.7,2.8,2.6,4.2c1.1-1,2-1.8,3.1-2.9c1,1.7,2,3.2,3.1,4.9c0.7-1.5,1.4-3,1.9-4.2c1.7,0.7,3.2,1.7,4.8,2
	c2,0.4,2.9-1.3,3.4-3.2c1.6,3.7,3.2,7.4,4.8,11v-6.2c-6.6-11.9-14.8-26.1-16.1-27.4c-8.3,20.2-17.9,36.8-28.7,55.3
	c-0.1-0.1-0.3-0.1-0.4-0.1c0-0.5,0-1.1,0-1.8c-0.6-0.1-1.3-0.1-2-0.2c0.6-1.1,0.7-1.2-0.2-1.9c-1-0.9-1.5-1.9-1.6-3.2
	c-0.1,0-0.2-0.1-0.2-0.1c-0.2,1.4-0.4,2.9-0.6,4.3c-0.2,0-0.3,0-0.5,0c-1.1-1.2-2.4-2.3-3.5-3.5c-0.2-0.3-0.2-0.9-0.1-1.3
	c0.4-1.1,0.1-1.7-1.1-1.8c-0.8-0.1-1.8,0-2.3-0.5c-1.3-1.4-2.5-2.9-3.9-4.6c1.6,0.2,3.1,0.7,4.7-0.5c-1-0.4-1.6-0.6-2.3-0.9
	c0.1-0.4,0.1-0.7,0.2-1.1c-2.9,0.4-2.9,0.4-3.3-0.7c0.7-0.2,1.4-0.4,2.2-0.6c-0.2-1-0.4-1.8-1.4-2.1c-0.9-0.2-1.1-0.7-1.2-1.5
	c-0.1-0.7-0.5-1.4-0.8-2.1c-0.2,0-0.3,0.1-0.5,0.1c-0.3,1.6-0.6,3.2-1,5.1c-5.7-7.3-9.2-15.2-11.6-23.8c-0.3,0.4-0.5,0.7-0.7,0.9
	c-2.3,3.2-4.5,6.3-6.8,9.5c-7,9.8-14.5,19.3-23.8,27c-7.4,6.1-15.5,11.1-25,13.5c-0.8,0.2-1.4,0.1-2-0.6c-4.5-5-8.3-10.4-11.7-16.1
	C67.7,82.7,63,71,58.8,59c-0.1-0.5-0.3-1-0.6-1.7c-0.7,2.2-1.3,4.1-1.9,6c-5.8,17.4-16.9,30.4-30.6,42.3
	c-6.4,5.6-13.1,11.6-20.6,15.6c0,0-0.1,0.1-0.1,0.1v36c19.4,16,42.4,23,68.9,21.1c13.5-1,26.8-4.1,39.5-8.8
	c15.6-5.8,31-12,46.3-18.3c19.8-8.1,40-14.8,60.7-20.1V103.3z M198.8,65.7c2.4-4.6,4.8-9.1,7.4-14c1.2,1.7,2.6,3.2,3.5,4.9
	c2,3.5,3.8,7.2,5.6,10.9c0.4,0.8-0.5,2.7-1.4,3.1c-1.2,0.4-1.7-0.4-2.2-1.2c-0.4-0.6-0.6-1.2-1-1.8c-0.5-0.7-1-1.4-1.7-1.9
	c-1.7-1.3-2.2-1.2-3.6,0.3c-0.2,0.3-0.4,0.5-0.7,0.8c-1-0.7-1.9-1.3-2.6-1.9c-0.8,1.7-1.5,3.3-2.2,5c-0.3-0.1-0.4-0.1-0.5-0.2
	C197.6,67.9,197.6,67.9,198.8,65.7z M177.9,110.1c1.7,1.1,3.4,2.2,5.1,3.4c0.2,0.1,0.2,0.6,0.3,0.9c0.7,0.2,1.5,0.4,2.5,0.6
	c-1.2,1-2.3,1.5-3.5,1.2c-0.3-0.1-0.5-0.8-0.9-1.5c-1,0.2-2.5,0.8-3.3-0.7c-0.2-1-0.3-1.9-0.5-3.1c-0.8,0-1.7,0.1-2.7,0.2
	C175.3,110.1,176.9,109.5,177.9,110.1z M165.8,100.6c-0.7,0.4-1.4,0-1.8-1.5C164.6,99.6,165.1,100.1,165.8,100.6z M9.1,153.8
	c-1.1,0-2.1-0.1-2.5-1.7c0.9,0.1,1.7,0.3,2.4,0.3c0.6,0,1.1-0.3,1.6-0.5c-0.4-0.4-0.8-0.7-1.2-1c-0.1,0-0.2-0.1-0.4-0.2
	c0.2-0.3,0.7-0.6,0.7-0.9c0.1-1,0.8-1.3,1.5-1.1c0.8,0.2,1.4,0.8,0.6,2c0.6-0.2,1-0.3,1.5-0.5c0,0.4-0.1,0.8-0.1,1.2
	c0.8-0.1,1.6-0.2,2.5-0.3c0.4,1.3-0.4,2.5-1.6,3.3c-0.8,0.5-1.6,0.7-2.6-0.1C11,153.8,9.9,153.8,9.1,153.8z M12.6,159.8
	c0.5-0.7,1-1.5,1.5-2.3c0.9,1.2,1.3-0.2,1.9-0.4C15.9,159.2,14,160.6,12.6,159.8z M10.5,147.7c-0.4-0.1-0.8,0.1-1.3,0.2
	c-0.5-0.5-1.1-1.1-1.8-1.7c1-0.9,0.8-1.5-0.5-2.2c-0.5-0.3-0.9-0.7-1.4-1.2c2.9,0.2,5.4,0.5,7.8,0.8c0.1,0.2,0.3,0.8,0.6,0.9
	c0.9,0.5,1.8,1.9,3.1,0.3c0.2,0.5,0.3,1,0.4,1.5C15.4,147.7,13.1,148.4,10.5,147.7z M31.1,149.5c-1.2-0.7-2.3-1.4-3.5-2
	c0-0.1,0.1-0.3,0.1-0.4c0.7-0.2,1.4-0.3,2-0.6c0.8-0.3,1.2,0,1.3,0.9c0,0.6,0.3,1.2,0.4,1.8C31.3,149.3,31.2,149.4,31.1,149.5z
	 M34.8,139.9c-0.1,0.6-0.1,1.3-0.2,2.1c-0.6-0.5-1-0.9-1.8-1.5c0.1,0.9,0.2,1.4,0.3,2.1c-1.7-0.4-2.9,1.6-4.7,0.7
	c-0.7-0.3-1.3-0.7-2-1.1c0-0.1,0.1-0.3,0.1-0.4c0.5,0,1,0,1.6-0.1c-0.2-0.2-0.3-0.4-0.3-0.6c2.7-0.3,5-1.3,5.9-4.4
	c0.8,1.1,1.5,2.1,2.3,3.1C35.5,139.8,35.2,139.9,34.8,139.9z M46.4,156.8c-0.7-1,0.1-1.6,0.5-2.3c-1,0.3-1.9,0.5-3.1,0.8
	c0.6-0.9,0.9-1.5,1.4-2.3c-0.8-0.1-1.3-0.1-1.9-0.2c0.2-0.4,0.3-0.7,0.6-1.2c1.1,1.1,2,2,3,2.9c0.2,0.4,0.5,0.8,0.8,1.2
	C47.3,156.1,46.9,156.4,46.4,156.8z M62.6,157.2c1.3-0.4,2.5-0.8,3.7-1.2C65.3,157.8,63.7,158.1,62.6,157.2z M66.1,151
	c-0.4,0.6-0.7,1-1,1.4c-0.2-0.5-0.3-1-0.5-1.6c-0.5,0-1.3,0.1-2,0.2c-0.1-0.2-0.2-0.3-0.3-0.5c0.7-0.7,1.3-1.6,2.2-1.9
	c1.5-0.5,2.1,0.9,3,2C66.8,150.8,66.3,150.9,66.1,151z M82.3,158.5c-0.3,0.1-0.6,0-0.9,0c-0.4-0.1-0.8-0.1-1.5-0.2
	c-0.4-0.6,0-1.1,0.9-1.3c0.6-0.2,1.2-0.2,1.8-0.3c0.6-0.2,1.4-0.1,1.5-1.1c0.1-0.3,0.8-0.5,1.2-0.7c0,0.1,0.1,0.2,0.2,0.3
	C85.1,156.9,83.8,157.8,82.3,158.5z M88.5,121c0.9,1.5,0.9,1.5-0.7,2.3c0.3,0.9,0.6,1.8,1,2.8c-1,0.1-1.9,0.2-2.7,0.3
	c-0.1,0.1-0.1,0.3-0.2,0.4c0.9,0.9,1.8,1.7,3,2.9c-1.7,0.2-3.3,0.4-4.9,0.6c0.6,1.1,1.1,2.2,2.7,1.8c0.2-0.1,0.7,0.2,0.7,0.3
	c0,0.3-0.1,0.9-0.3,1c-0.8,0.4-1.7,0.8-2.6,1c-0.7,0.2-1.5,0.1-2.2,0.2c-1,0.2-1.8,0.6-2.2,1.7c2-0.3,1.4,1.2,1.7,2.4
	c0.6-0.3,1.2-0.5,1.7-0.7c1.5-0.7,1.5-0.7,2,0.8c0,0.2,0.2,0.2,0.3,0.4c0.4-0.2,0.7-0.5,1-0.6c0.5-0.1,1.2-0.2,1.4,0.1
	c0.4,0.6,0.2,1.2-0.6,1.5c-2,0.7-4,1.8-6.2,1.9c-0.4,0.1-0.8,0.2-1.4,0.4c2.3,1.5,4.7,1.7,7.1,2.1c-0.2,1.3-0.8,2.2-1.9,2.7
	s-2.2,0.9-3.3,1.5c-1.3,0.7-1.4,1.2-0.5,2.4c-0.6,1.6-1.7,2.3-3.4,2.3c-0.7,0-1.4,0.3-2.3,0.4c-0.3-1.4-1-2.6-3.1-3.1
	c1-0.5,1.6-0.8,2.2-1.1c-0.2-1.2-0.5-2.3-0.8-3.6c0.7,0.3,1.3,0.6,1.9,0.7c0.5,0.1,1,0.1,1.5,0.1c0-0.5-0.1-0.9-0.1-1.5
	c1.2-0.8,2.5,0.2,3.8,0.4c0.4-1-0.1-1.4-0.9-1.7c-1.6-0.6-3.3-1.2-4.9-1.8c-0.4-0.2-0.7-0.3-1.1-0.5c0-0.2,0.1-0.3,0.1-0.5
	c2.4,0,4.9,0,7.4,0c-0.1-1.2-0.3-1.6-1.5-1.7c-2.3-0.2-4.5-0.8-6.8-1.3c-0.2,0-0.6-0.3-0.7-0.5c-0.2-0.3-0.2-0.7-0.2-1.1
	c0.4,0,0.7-0.1,1,0c0.9,0.3,1.8,0.7,2.7,0.9c0.5,0.1,1.1-0.4,1.6-0.6c-0.5-0.5-1-1.6-1.5-1.6c-1.6-0.2-2.3-1.1-2.9-2.7
	c1.7,0,3.3,0.1,4.8,0.2c0-0.2,0.1-0.3,0.1-0.5c-1.3-0.5-2.5-1.1-3.7-1.6c-1.5-0.6-1.6-0.5-1.2-2.3c0.8,0,1.6,0,2.7,0
	c-0.5-0.6-0.8-1-1.2-1.5c1-0.2,2.2-0.2,2.4-1.7c-0.4-0.1-0.7-0.1-1.1-0.1c-0.6,0-1.3,0.1-1.8-0.1c-0.5-0.2-0.9-0.7-1.4-1.1
	c0.4-0.3,0.7-0.6,1.1-0.9c1.6-1.1,2.9-2.4,3.5-4.5c-2,0-2.9,2.6-5.3,1.5c1.5-1.1,3.6-0.8,3.9-2.8c-1-0.4-2-0.9-3.1-1.4
	c1.5-1.5-0.3-1.4-0.8-2c0.2-0.3,0.6-0.6,0.7-1c0.1-0.3,0-0.8-0.1-0.9c-1-0.4-0.6-1.3-0.8-2c-0.2-0.7,0.3-1.9-0.8-1.7
	c-0.5,0.1-0.9,1.4-1.2,2.2c-0.1,0.3,0.1,0.6,0.1,0.9c0,0.1-0.2,0.3-0.3,0.5c-0.4-0.2-0.7-0.4-1.1-0.6c-0.2,0-0.3,0.1-0.4,0.1
	c0.3,0.7,0.5,1.4,0.9,2c1,1.5,1.1,1.6-0.2,2.9c-0.6,0.7-0.3,1.8,0.8,2.8c-0.3,0.2-0.6,0.3-1,0.5c0.4,0.5,0.8,1,1.4,1.8
	c-0.7-0.3-1.1-0.4-1.8-0.7c0.2,0.8,0.4,1.4,0.6,2.1c-0.8-0.1-1.6-0.3-2.4-0.4c-0.3,0-0.7,0.3-1,0.4c0.1,0.4,0.2,0.8,0.5,1
	c0.7,0.5,1.6,0.9,2.4,1.2c0.7,0.3,1,0.6,0.6,1.4c-1-0.6-1.9-1.2-3.4-1.4c0,0.9,0.1,1.4,0.1,2c0,0,0,0.1-0.1,0.1
	c-0.6,0.3-1.2,0.7-1.8,1c0.6,0.4,1.2,0.9,1.9,1.1c0.7,0.2,1.5,0.1,2.3,0.2c0.3,0.1,0.6,0.4,0.9,0.6c-0.4,0.1-0.7,0.3-1,0.3
	c-1.5-0.3-2.9-0.6-4.4-0.9c-0.4-0.1-0.9-0.1-1.5-0.2c0.5,1.2,1,2.1,2.2,2.4c1.2,0.2,2.3,0.5,3.5,0.6c1.1,0.1,1.5,0.7,1.5,1.8
	c-2.2,0.4-4.1,1.3-4.8,4c1.9-0.5,3.4-0.9,5-1.4c0,2.3-0.2,2.4-2.1,2.2c-0.7,0-1.5-0.1-2.2-0.2c-1.3-0.1-1.6,0-2.5,1.3
	c1.4,0.7,2.8,1.3,4.2,1.9c0,0.1,0,0.2,0,0.3c-0.6,0-1.3,0-1.9,0.2c-0.6,0.1-1.1,0.4-1.6,0.6c0.4,0.6,0.7,1.6,1.3,1.9
	c0.8,0.4,1.9,0.4,2.9,0.6c0.4,0.1,0.7,0.2,1.1,0.3c0,0.9-0.4,1.3-1.2,1.2c-2-0.3-3.9-0.7-5.9,0.2c-0.2,0-0.5-0.2-0.8-0.3
	c0.1-0.4,0.3-0.7,0.5-1c0.3-0.4,0.7-0.8,1.1-1.2c-0.1-0.1-0.2-0.2-0.3-0.3c-0.5,0.2-1,0.4-1.6,0.6c-0.2-0.9,1.5-2.7-1.1-2.4
	c0-1.7-0.8-3.3,0.7-4.8c-0.1,0-0.2-0.1-0.3-0.1c-0.3,0.2-0.6,0.4-1.1,0.7c-1.6-1.8,0.5-3.2,0.6-4.8c-0.7,0.1-1.4,0.2-2,0.3
	c-0.1-0.1-0.1-0.2-0.2-0.3c0.6-0.4,1.2-0.8,1.8-1.2c-0.1-0.2-0.3-0.3-0.4-0.5c-0.3,0.2-0.5,0.3-0.8,0.4c-0.4,0.2-0.8,0.2-1.2,0.3
	c0.1-0.4,0.1-0.9,0.3-1.3c0.3-0.5,0.7-0.9,1.1-1.6c-0.5,0.1-0.7,0.1-1,0.1c0-0.4,0-0.9-0.1-1.6c-0.5,0.2-0.8,0.4-1.2,0.6
	c-0.1-0.1-0.2-0.1-0.3-0.2c0.4-0.7,0.8-1.5,1.2-2.2c-0.1-0.1-0.1-0.1-0.2-0.2c-0.4,0.2-0.8,0.5-1.3,0.7c0.1-0.9,0.3-1.7,0.3-2.5
	c-0.1-0.7-0.3-1.5-0.5-2.3c-0.1,0-0.2,0-0.3,0c-0.4,1-0.6,2-1,2.9c-0.3,0.8-0.8,1.5-1.3,2.4c0.2,0.3,0.4,0.7,0.6,1.1
	c-0.7,0.6-1.3,1.1-1.9,1.7c0.6,0.7,1,1.2,1.6,2c-0.8-0.2-1.3-0.3-2-0.4c0.3,1.2,0.6,2.1,0.8,3.1c-0.2,0-0.6-0.1-1.2-0.2
	c-0.1,1.6,1.4,1.5,2.2,2.1c0,0.1-0.1,0.2-0.1,0.3c-1.1-0.3-2.2-0.6-3.3-0.9c-0.1,0.1-0.1,0.1-0.2,0.2c0.6,0.8,1.2,1.7,1.8,2.5
	c-0.1,0-0.1,0.1-0.2,0.2c-0.7-0.5-1.5-1-2.5-1.6c0.3,2,1.9,2.6,2.9,3.9c-1.4,0-2.8-2.1-4-0.2c0.2,1.9,0.2,3.8,2.6,4.5
	c-0.1,0.1-0.1,0.3-0.2,0.4c-1,0.2-2,0.4-3.3,0.6c0.9,1.4,1.8,2.8,2.7,4.2c-0.1,0.1-0.2,0.2-0.3,0.3c-1.1-0.7-2.3-1.5-3.5-2.2
	c-0.1,0.1-0.2,0.1-0.3,0.2c0.4,0.9,0.9,1.9,1.4,2.8c-0.1,0-0.1,0.1-0.2,0.2c-0.7-0.4-1.5-0.7-2-1c-0.2-1.4-0.4-2.6-0.6-4
	c-0.4,0.3-0.8,0.6-1.2,1c0-1,0-1.9,0-2.9c-0.4,0.2-0.6,0.4-0.7,0.4c-0.2-1.3-0.5-2.7-0.6-4.1c-0.1-1.3-0.1-2.5-0.2-3.7
	c-0.1-0.4-0.4-0.9-0.6-1.3c-0.1-0.2-0.2-0.5-0.2-0.8c-0.1-3-1.1-5.7-1.8-8.5c-0.1-0.2-0.2-0.4-0.5-0.8c-0.1,0.7-0.1,1.2-0.2,1.6
	c-0.1,0.4-0.1,0.9-0.3,1c-1.7,1-0.9,2.3-0.5,3.6c0.1,0.3,0.1,0.6,0.2,1.1c-0.7-0.4-1.1-0.7-1.9-1.2c0.4,2.6-0.8,3.6-3,3.8
	c-0.8,0.1-1.5,0.8-2.3,1.1c-0.4,0.1-0.9-0.3-1.3-0.4c0.2-0.4,0.4-0.8,0.7-1.1c1.2-1.1,2.4-2,3.6-3.1c-2,0.3-3.9,2.3-6.1,0.7
	c1.1-1.1,2.1-2.2,3.1-3.3c-0.5-0.4-0.8-0.6-1.2-0.9c0.7-0.5,0.3-1.6,1.3-1.8c0,0,0.1-0.5,0-0.6c-0.4-0.3-0.8-0.7-1.3-0.8
	c-0.6-0.1-1.2,0-1.8,0c0-0.2,0-0.3,0-0.5c0.8-0.2,1.5-0.3,2.3-0.4c-0.1-0.7-0.1-1.2-0.2-1.9c-0.8,0.1-1.6,0.3-2.4,0.4
	c0.2-0.6,0.4-1.2,0.7-2c-1,0.2-1.7,0.4-2.8,0.6c0.4-1,0.7-1.6,1.1-2.4c-0.6,0.1-1,0.1-1.4,0.2c-0.3-1.3-0.5-2.6-0.8-4
	c-1,0.4-0.8,1.2-0.9,1.9c-0.1,0.6-0.5,1.3-0.5,1.9c0,0.7,0.2,1.4,0.3,2.3c-0.8-0.4-1.4-0.7-2.1-1c-0.1,0.5-0.1,0.8-0.2,1.2
	c0.4,0.1,0.7,0.3,1.2,0.6c-0.6,0.3-1,0.5-1.5,0.8c0.4,0.5,0.7,0.9,1.2,1.5c-0.7,0.2-1.3,0.4-1.9,0.6c0.7,0.9,2.3,1.3,1.5,2.8
	c-0.7-0.4-1.3-0.7-2-0.9c-0.3-0.1-0.7,0.1-1,0.2c0.1,0.3,0.1,0.6,0.2,0.9c0.4,0.9,0.8,1.7,1.8,2.2c0.3,0.1,0.3,0.8,0.5,1.2
	c-1.5,1-2.9,1-4.3,0c-0.7-0.6-1.8-0.8-2.7-1.2c0,0.1-0.1,0.3-0.2,0.4c0.8,0.7,1.6,1.3,2.6,2.2c-0.8,0.5-1.4,0.8-2,1.2
	c1.2,1.6,2.1,2.8,3.1,4.1c-0.4,0.2-1.1,0.5-1.9,0.9c1.2,0.3,2,0.5,2.9,0.8c0,0.2,0,0.4,0,0.6c-1.2,0.1-2.3,0.3-3.5,0.3
	c-0.3,0-0.6-0.8-0.8-1.4c-1.3-0.3-3,0.5-4-1.5c0.4-0.5,0.6-1.2-0.5-1.6c0.4-0.5,0.7-0.8,1.1-1.4c-1.1,0-2,0-2.9,0
	c0-0.2-0.1-0.3-0.1-0.4c0.3-0.2,0.6-0.4,0.9-0.5c0.4,0,0.9,0.1,1.2,0c0.5-0.3,1.4-0.6,1.5-1c0.2-1.2-0.6-1.9-1.7-2
	c-0.7-0.1-1.8-0.3-1.9-0.7c-0.3-1.1-0.2-2.3-0.1-3.4c0.1-0.2,0.7-0.4,1-0.5c0-0.6,0-1.1,0.1-1.9c-0.4-0.1-1-0.2-1.7-0.4
	c11.2-8.8,23.1-16.7,33.4-26.4c3.2,2.6,6.5,5.1,9.9,7.8c1.9-2.5,3.8-4.8,5.7-7.2c3.4,3.3,7.3,5.9,11.7,7.8c0.4-3.1,1.1-5.9,2.9-8.3
	c0.7-0.9,1.6-1.8,2.5-2.9c-3,1.7-5.3,4-7,7.3c-3.6-4-7-7.6-10.4-11.4c-1.9,3.8-3.9,7.4-5.9,11.3c-3-1.6-5.8-3.1-8.9-4.8
	c10.3-9.6,16.1-21.5,19.5-34.8c3.6,11,7.4,21.9,12.9,32.3c-0.1,0-0.1,0.1-0.2,0.1c0.5,0.9,1,1.7,1.4,2.4c4.3,7.6,9.4,14.6,15.6,20.8
	C89.6,119.8,89.6,120.3,88.5,121z M103.2,157.7c-1.8,0.6-5.8-0.6-7.3-2.4c0.8,0.3,1.6,0.5,2.3,0.8c0.3,0.1,0.6,0.5,0.7,0.5
	c1.8-1.5,4.1,1,5.9-0.7c0.1,0,0.4,0.1,0.7,0.1C105.1,157.3,104,157.5,103.2,157.7z M97.4,145.6c1.9,0,3.6,0,5.1,0
	c-0.2,0.5-0.3,0.9-0.5,1.2s-0.7,0.8-1,0.7c-1.1-0.3-2.1-0.8-3.1-1.2C97.8,146.2,97.7,146,97.4,145.6z M103.2,150.7
	c0-0.1,0-0.2,0-0.3c0.6-0.2,1.3-0.4,2.1-0.6c0.1,0.6,0.1,1.1,0.3,2C104.6,151.4,103.9,151.1,103.2,150.7z M105.4,135.5
	c-1.5,0-2.1,1-2.9,2.2c1.3-0.2,2.4-0.4,3.6-0.6c0,0.7,0,1.3,0,2.1c-1.2,0-2.2,0-3.5,0c0.2,0.4,0.4,0.7,0.6,1
	c-0.5,0.1-0.9,0.2-1.3,0.3c0.1,0.3,0.2,0.5,0.5,1.1c-2-1.1-3.7-2.1-5.4-3.1c1.8-0.4,3.8-0.3,5.3-2.2c-2.4-1.1-4.7-2.3-7.1-3.4
	c0.8-0.9,1.3-1.6,2.4-0.7c0.2,0.1,0.7,0.1,0.8-0.1c0.2-0.2,0.2-0.7,0.1-0.8c-0.6-0.6-1.2-1.2-1.9-1.7c-0.7-0.4-1.4-0.6-2.3-1
	c1-0.5,1.9-0.9,2.7-1.3c-1.3-0.7-2.8,0.1-3.5-1.7c0.4-0.3,0.8-0.7,1.2-1.1c3.4,2.3,6.8,4.5,10,6.7c-0.7,0.8-1.4,1.6-2.1,2.5
	c1.6,0.4,2.8-0.1,4-1.4C107.3,133.2,106.5,135.5,105.4,135.5z M117.4,156.5c-0.8,0.8-1.6,1.6-2.3,2.5c-0.6,0.8-1.2,1.4-2.3,1.5
	c-1.2,0.1-2.4,0.5-3.6,0.7c-0.5,0.1-1.1,0-1.6,0c0-0.2-0.1-0.3-0.1-0.5c1.2-0.3,2.4-0.8,3.7-1c1.6-0.3,1.7-0.3,2-1.6
	c0.2,0,0.4-0.1,0.7-0.1c0.3,0,0.5-0.1,0.8-0.1c-0.5-1.3-1.3-1.6-2.7-0.8c-1.4,0.8-2.7,0.6-4.1-0.2c1.6-0.3,3.2-0.5,4.8-0.7
	c0-0.2,0.1-0.3,0.1-0.4c-1.7-0.8-3.3-1.7-5-2.5c0-0.1,0.1-0.3,0.1-0.4c1.9,0.6,4,0.2,5.7,1.5c1.4,1,2.6,1,4.1,0c0.3-0.2,1,0,1.5,0
	c0.1,0.2,0.1,0.4,0.2,0.6C118.7,155.5,118,155.9,117.4,156.5z M120.8,140.3c-0.1,0.4-0.1,0.8-0.1,1.1c-1,0.8-2.4-1.1-3.1,0.7
	c-0.3,0.8-0.9,1.7,0.2,2.1c-0.5,0.7-1.3,1.4-1.3,2c0.2,2.1,2,1.8,3.5,1.9c-0.3,0.1-0.7,0.2-1,0.3c0.2,0.6,0.3,1.1,0.5,1.6
	c-0.9,0.1-1.9,0.2-3.1,0.3c0.4-0.6,0.6-0.9,1-1.5c-3.4,0.2-6.6,0.3-9.7,0.5c0-0.1-0.1-0.3-0.1-0.4c2.3-0.6,4.7-1.2,7.2-1.8
	c-0.8-1.2-1.7-1.7-3-1.6c-1,0.1-2.1-0.2-3.1-0.3c0-0.1,0-0.3,0-0.5c1.5-0.2,2.9-0.4,4.6-0.7c-1.2-0.5-2.2-0.8-3.2-1.2
	c0-0.1,0-0.2,0-0.3c0.7-0.1,1.5,0,2.2-0.2c0.4-0.1,0.8-0.5,1.2-0.7c-0.4-0.2-0.8-0.6-1.2-0.6c-1.4-0.2-2.7-0.2-4.1-0.3
	c0-0.1,0-0.2,0-0.3c0.4-0.2,0.7-0.5,1.1-0.8c-0.6-0.4-1.1-0.6-1.6-0.9c0.2-0.2,0.4-0.5,0.6-0.7c0.6,0.3,1.3,0.7,2,1
	c1.3,0.5,2.6,1,4,1.4c0.3,0.1,0.7-0.2,1-0.4c-0.2-0.2-0.3-0.5-0.5-0.9c0.3-0.3,0.6-0.5,0.9-0.8c0-0.2,0-0.3,0-0.4
	c-1.1-0.1-2.3-0.1-3.4-0.2c-1,0-2.2,0.3-1.7-1.5c0-0.2-0.7-0.8-1.1-0.9c-1-0.3-1.4-0.9-1.1-2c3,1.4,5.9,2.8,8.9,4.2
	c0.8,0.4,1.5,0.8,2.3,1C120.7,138.7,121.1,139.2,120.8,140.3z M133,150.2c0.4,0.7,1,1.3,1.4,2c-0.9-1.3-2.8-1.2-3.4-3
	c-0.5-1.6-0.2-3,1-4.4c-0.9-0.2-1.6-0.4-2.3-0.5c0.3-0.7,0.7-1.3,1-1.9c3.2-0.1,5.2,1.8,6.7,4.6c-1.1,0.7-2.1,1.7-3.8,1.7
	C132.3,148.7,132.7,149.6,133,150.2z M164.3,134c-0.1,1.7-0.9,3.1-2.3,4.1c-2.3,1.6-4.7,2.4-7.4,1.4c-0.3-0.1-0.7-0.6-0.7-0.9
	c0-2,0.2-4.1,0.3-6.1c0-0.3,0.2-0.6,0.1-0.8c-0.9-1.5-0.2-2.8,0.2-4.2c0.4-1.6,0.3-1.8-1.3-1.7c-0.5,0-1,0-1.6,0
	c0.1-0.5,0.1-0.9,0.2-1.3c0.1-0.3,0.1-0.7,0.2-1.1c-0.2-0.1-0.3-0.2-0.4-0.3c-0.5,0.7-1,1.5-1.5,2.2c-0.2-0.1-0.3-0.2-0.5-0.3
	c-0.1-1-0.2-2-0.3-3.1c-0.5,0.1-0.8,0.1-1.2,0.2c0-0.2-0.1-0.3,0-0.4c0.7-1.1,1.5-2.1,2.1-3.2c0.5-0.8,0.6-1.7-0.4-2.3
	c-0.3-0.2-0.4-0.7-0.5-1.1c-0.2-0.9-0.3-1.9-0.4-3.1c-0.8,0.7-1.5,1.3-2.1,1.8c-0.1-0.1-0.2-0.1-0.3-0.2c0.3-1.1,0.5-2.2,0.9-3.3
	c0.4-1.2,0.4-2-1-2.3c-0.3-0.1-0.6-0.7-0.6-1.1c-0.1-0.9,0-1.9,0-2.8c-0.2,0-0.3-0.1-0.5-0.1c-0.3,0.5-0.7,1.1-0.8,1.7
	c-0.3,1.5-0.5,3-0.8,4.5c-0.2,1-0.7,1.9-0.9,2.9c-0.1,0.7-0.1,1.4-0.1,2.1s0,1.3,0.1,2c-0.4,0.1-0.7,0.3-0.8,0.3
	c-0.2,2.8-0.4,5.4-0.6,8c0,0.2-0.1,0.4-0.2,0.6c-0.7,0.8-0.7,1.6-0.1,2.5c0.2,0.2,0.1,0.5,0,0.8c-0.3-0.3-0.5-0.6-1-1.3
	c0,1.6,0,2.9,0,4.4c-0.7-0.6-1.2-1-2-1.6c0.3,0.7,0.4,1.2,0.5,1.6c-1.2,2.1-1,4.1-0.1,6.1c-0.6,0.3-1.3,0.5-1.9,0.8
	c0.4,0.7,0.7,1.3,1.1,2c-1.8-0.6-3.8-1.1-5.7-1.9c-0.8-0.3-1.7-1.2-1.1-2.4c0.1-0.2,0.1-0.6,0.1-0.7c-0.5-0.4-1.3-0.8-1.3-1.2
	c0.1-1.3-1.1-2.5-0.3-3.9c0.1-0.1-0.4-0.6-0.7-0.7c-0.5-0.2-1.1-0.2-1.7-0.3c0-0.2-0.1-0.3-0.1-0.5c0.9-0.5,1.7-1.1,2.9-1.8
	c-1-0.7-1.8-1.4-2.7-1.9c-1.7-1-1.6-0.9-0.9-2.6c0.4-0.7,0.4-1.6,0.3-2.4c0-0.8-0.8-1.6-0.2-2.5c0.1-0.1-0.1-0.4-0.2-0.6
	c-0.3-0.5-0.7-1-1.1-1.6c-0.4,0.8-0.8,1.6-1.2,2.5c-0.4,0.8-0.9,1.6-1,2.5c-0.1,0.7,0.3,1.6,0.6,2.3c0.5,1.1,0.3,1.7-0.8,2
	c-1,0.3-1.6,0.8-1.4,1.9c0.1,1,0.7,1.5,1.7,1.5c0.1,0,0.3,0,0.7,0.2c-0.7,0.3-1.3,0.5-1.8,0.7c-1.4,0.5-1.5,0.8-0.5,1.9
	c0.2,0.2,0.4,0.4,0.5,0.6c-0.5,1.1-3-0.3-2,2.5c-3.8-2.2-7.4-4.2-10.8-6.2c-0.3-0.2-0.3-1-0.5-1.5s-0.3-1.1-0.6-2
	c-0.3,0.9-0.4,1.6-0.6,2.4c-7.2-4.7-13.7-10.2-19.8-16.5c13.3-3.1,24.4-9.9,34.1-18.8c1.7,2.5,3.3,4.9,5.1,7.5
	c1.4-1.7,2.7-3.2,4-4.7c1.5,1.2,2.9,2.4,4.3,3.6c2.7,2.3,4.7,1.8,6.1-1.4c0.2-0.3,0.3-0.6,0.5-1c0.9,0.7,1.8,1.3,2.7,1.9
	c2.3,1.6,3.8,1.4,5.6-0.7c1.9-2.3,3.8-4.6,5.7-6.9c-1.9,1.3-3.8,2.6-5.7,4c-2.6,2-2.6,2-4.8-0.4c-1.8-1.9-3.6-3.8-5.4-5.7
	c-0.3-0.3-0.6-0.6-1.1-1c-0.5,2.6-1,5-1.5,7.7c-2.2-1.4-4.3-2.6-6.5-4c-1.2,2-2.5,4-3.9,6.3c-1.5-1.8-3.1-3.6-4.7-5.4
	c8-7.3,15.5-18.3,22-26.8c0.7,1.7,6.7,18.3,10.4,23.2c0.5,0.7,0.8,1.4,1.2,2.1c1.4,0.6,2.1,1.8,1.7,3.2c-0.1,0.3-0.3,0.5-0.5,0.8
	c-0.3,0.5-0.6,0.9-1.1,1.6c-0.2,0-0.6,0-1.3,0c0.1,0.4,0.2,0.8,0.3,1.2c-0.5,0.1-1,0.3-1.4,0.4c0.1,0.5,0.1,1,0.2,1.5
	c0.1,0.7,0.4,1.3,1.3,0.9c0.4-0.1,0.7-0.4,1-0.4c2.3-0.2,2.9-1.8,3.2-3.7c0-0.2,0-0.5,0.1-0.9c0.6,1.1,0.3,4.9-0.5,5.6
	c-0.3,0.3-0.8,0.3-1.2,0.5c-0.7,0.3-1.3,0.8-2,1.2c0.1,0.2,0.1,0.4,0.2,0.6c1.4-0.1,2.9-0.3,4.4-0.4c0,0.2,0.1,0.3,0.1,0.5
	c-0.5,0.2-1.1,0.4-1.6,0.7c-0.3,0.2-0.5,0.5-0.8,0.8c0.3,0.2,0.6,0.5,1,0.6c0.6,0.1,1.2,0,2,0c0,0.8,0.1,1.6,0.2,2.4
	c-1.6,0.4-3,0.9-4.5,1.3c-0.2,0.6-0.3,1.3-0.5,2c0.2,0,0.5,0.1,0.8,0.2c-0.1,0.3-0.2,0.6-0.3,1c0.4-0.1,0.8-0.2,1.1-0.3
	c0.6,0.8,1.2,1.6,2.4,0.8c0.8-0.5,1.9,0.5,1.9,1.7c-0.8,0.4-1.9-0.7-2.5,0.6c0,0-0.5-0.1-0.7-0.2c-0.9-0.3-1.7-0.6-2.6-0.8
	c-0.6-0.2-1.5-0.6-1.8,0.3c-0.2,0.5,0.1,1.1,0.2,1.7c-0.5-0.1-1-0.1-2-0.3c0.7,0.7,1.2,1.2,1.7,1.8c-0.5,0.1-0.9,0.3-1.6,0.5
	c0.7,1.1,1.3,2,1.9,3c0.1-0.1,0.2-0.1,0.3-0.2c-0.1,0.3-0.1,0.5-0.2,0.9c0.4,0.1,0.8,0.2,1.4,0.3c-0.2,0.5-0.4,0.9-0.6,1.4
	c1.6,0.2,2.7-0.6,3.6-1.5c1-0.9,2-1,3.2-0.4c-0.7,0.7-1.4,1.5-2.1,2.2c0,0.1,0.1,0.2,0.2,0.3c0.8-0.4,1.5-0.7,2.4-1.1
	c0.1,0.6,0.2,1.2,0.3,1.7c0.2,0.8,0.1,1.5-0.9,1.8c-0.4,0.1-0.8,0.4-1.1,0.7c-1.5,1.4-3.1,2.9-4.6,4.3c0.8,2,2.1,1.1,3.3,0.7
	c0.5-0.2,1.1-0.4,1.6-0.6C163.3,130.9,164.5,131.8,164.3,134z M164.7,116.9c0.4-0.2,0.7-0.4,1-0.4c0.9,0.1,1.7,0.4,2.6,0.5
	c0.6,0,1.3,0,1.9-0.2c0.3,0,0.5-0.5,0.7-0.8c-0.3-0.2-0.6-0.5-0.9-0.6c-0.5-0.1-1.1,0.1-1.6,0c-0.5-0.1-1.1-0.3-1.6-0.5
	c-0.8-0.2-1.6-0.5-2.4-0.8c0.6-0.8,1.5-0.8,2.2-0.2c1.1,0.9,1.9,0.1,2.4-0.6c0.2-0.4-0.1-1.4-0.5-1.9c-0.7-0.8-1.6-1.6-2.9-1.3
	c-1.2,0.3-1.2-0.7-1.7-1.5c0.6,0,1,0,1.4-0.1c0.4-0.2,0.7-0.5,1.1-0.8c-0.4-0.2-0.6-0.6-1-0.7c-0.7-0.2-1.5-0.2-2.3-0.3
	c0.4-1.4,1-1.8,2.1-1.4c0.9,0.3,1.7,0.5,2.6,0.8c0.2-1.1,0.4-2.1,0.6-3.2c1.1,0.9,2.1,1.7,2.6,2c0.4,1.5,0.7,2.5,1,3.7
	c-0.2,0.1-0.5,0.3-0.9,0.5c0.3,1,0.6,1.9-0.8,2.5c0.1,0.1,0.2,0.2,0.3,0.3c1.1-0.1,2.2-0.1,3.3-0.2c0,0.1,0.1,0.3,0.1,0.4
	c-0.6,0.3-1.2,0.6-1.7,0.8c0.1,0.7,0.2,1.3,0.3,2.3c2,1.8,2.4,2.5,2.1,4.9c-0.8,0-1.4,0.1-1.6-1c-0.2-1-0.8-1.1-1.6-0.4
	c-1.1,0.9-4.1,0.6-5.4-0.5c-0.2-0.2-0.6-0.3-0.8-0.5S164.9,117.2,164.7,116.9z M172.1,138.6c-0.2-0.9-0.4-1.6-0.7-2.5
	c1.1-0.5,0.5-1.1-0.4-1.7c-0.9-0.6-1.7-1.2-2.5-1.9c-0.3-0.2-0.5-0.9-0.4-1.1c0.9-1.3,0.3-1.7-0.9-2c-0.1,0-0.2-0.1-0.4-0.3
	c1-0.8,2.7-0.2,3.1-1.8c-1.3-1.1-3.3-1.1-4.2-3.2c0.9,0,1.6,0,2.2,0c0.4,0,0.8-0.2,1.2-0.3c-0.1-0.4-0.2-0.9-0.4-1.2
	c-0.3-0.4-0.7-0.8-1-1.2c0.1-0.1,0.1-0.3,0.2-0.4c1.7,0.8,3.5,1.6,5.1,2.4c0,0.5,0,1,0,1.2c-0.7,1-1.4,1.8-2.1,2.7
	c0.4,0.3,0.8,0.6,1.4,1c-0.4,0.3-0.9,0.6-1.3,1c-1.7,1.4-1.6,1.8,0.3,2.9c-0.1,0.4-0.2,0.9-0.4,1.7c1.3-0.7,2.5-1.2,3.6-1.8
	c0.2,0.7,0.3,1.4,0.4,2.1c0.4,0,0.8-0.1,1.4-0.2c-0.1,0.7-0.3,1.2-0.4,1.8c-1-0.4-1.8-0.7-2.5-0.9c0.1,0.8,0.2,1.5,0.3,2.2
	s0.5,1.1,1.2,0.8c0.4-0.2,0.9-0.4,1.6-0.7C175.6,138.5,174.4,138.8,172.1,138.6z M177.5,127.1c0.7,0,1.4,0.1,2.1,0
	c0.4,0,0.8-0.3,1.2-0.5c-0.3-0.3-0.7-0.6-1-0.9c-0.1-0.1-0.3-0.1-0.5-0.2c0.2-0.3,0.6-0.6,0.6-0.8c-0.1-1,0.5-1.5,1.2-1.3
	c0.5,0.1,0.8,0.9,1.3,1.6c0,0,0.3-0.1,0.7-0.3c0,0.4,0,0.7,0,1.1c0.7-0.2,1.4-0.3,2.1-0.5c0.5,1.1,0,2.9-1.4,3.6
	c-0.4,0.2-1.3,0.3-1.5,0.1c-0.8-0.8-1.6-0.7-2.5-0.5C178.4,128.7,178,128.4,177.5,127.1z M184.9,133.8c-0.5,0.6-1.3,1-2,1.5
	c-0.8,0.6-1.6,0.9-2.5,0.2c-0.3-0.2-0.8-0.2-1.2-0.3c-0.3-0.1-0.8-0.3-0.8-0.5c0-0.4,0.3-0.7,0.4-1.1c1,0.4,1.1-2.5,2.5-0.7
	c0.1,0.2,0.2,0.4,0.4,0.5c0.9,0.8,1.7,0.6,2.1-0.5c0.1-0.3,0.2-0.6,0.5-0.6c0.6-0.2,1.2-0.5,1.8-0.8c0.1,0,0.2,0.1,0.3,0.1
	C186,132.3,185.6,133.1,184.9,133.8z M182.8,122.3c-1.1,0.3-2.3,0.1-3.5,0.1c0.1,0.1,0.1,0.2,0.1,0.3c-0.8-0.6-1.5-1.2-2.2-1.7
	c0.2-0.3,0.8-0.7,0.7-0.8c-0.2-0.5-0.6-0.9-1-1.2c-0.4-0.4-0.8-0.7-1.5-1.2c2.6,0,4.8,0,6.9,0c0.3,0.4,0.5,0.9,0.9,1.1
	c0.8,0.3,1.6,1.4,2.5,0c0.2,0.5,0.4,0.9,0.8,1.6C185.3,121.1,184.2,121.9,182.8,122.3z M200.8,114.8c-0.4-0.3-0.8-0.6-1.5-1
	c0.1,0.8,0.2,1.2,0.3,1.6c-0.8,0.5-1.6,1-2.5,1.4c-1,0.5-2.5-0.2-3.2-1.3c1.2-0.6,2.4-1.2,3.4-2c1-0.9,1.8-2.2,2.7-3.3
	c0.5,0.5,1.1,1.3,1.5,2C201.2,113.2,201,114,200.8,114.8z M210.6,127.2c0.3-0.9,0.5-1.5,0.7-2.1c-0.6-0.1-1-0.1-1.6-0.2
	c0.1-0.4,0.2-0.7,0.5-1.2c0.9,0.9,1.8,1.7,2.8,2.6C212.2,126.6,211.5,126.9,210.6,127.2z"/>
<g>
	<path class="st1" d="M58.8,214c-0.9-1.4-2.4-2.4-4-2.6c-0.2-1-0.7-2-1.5-2.7c-2.2-2-5.6-2.2-7.7,0C40.4,214,36,220.2,32.9,227
		c-1.2,2.5-0.9,5.3,1.4,7c2.2,1.7,5.2,1.5,7.1-0.4c2.5-2.3,5.1-4.6,7.8-6.7c0.1,0,0.1-0.1,0.2-0.1c0.3-0.3,0.7-0.5,1-0.7
		c0.7-0.5,1.4-1,2.1-1.5c1.4-1,2.9-2,4.4-3C59.3,219.9,60.5,216.6,58.8,214L58.8,214z"/>
	<path class="st2" d="M195.2,187.2c-1.3-2-3.1-3.8-5.4-4.6c1-1.6,2-3.1,2.9-4.7c1.5-2.4,1.8-5.7,1.1-8.4c-0.7-2.5-2.6-5.2-5-6.5
		c-2.5-1.3-5.6-2-8.4-1.1c0,0-0.1,0-0.2,0.1c0-1-0.1-2-0.4-2.9c-0.7-2.5-2.6-5.3-5-6.5c-2.5-1.3-5.6-2-8.4-1.1
		c-0.9,0.4-1.7,0.7-2.6,1.1c-1,0.6-1.8,1.3-2.6,2.1c-0.9-2-2.3-3.9-4.3-4.9c-4.3-2.2-9.7-1.8-13.2,1.7c-1.6,1.6-3.2,3.4-4.6,5.2
		c0.1-1.3,0.1-2.6-0.3-3.9c-0.7-2.5-2.6-5.3-5-6.5c-0.7-0.4-1.5-0.7-2.2-0.9c1.8-3,3.6-6,5.4-8.9c1.4-2.2,1.9-5.9,1.1-8.4
		c-0.7-2.3-2-4.2-3.9-5.7c-1.8-1.4-4.2-2.4-6.6-2.3c-1,0.1-1.9,0.3-2.9,0.4c-1.8,0.5-3.4,1.5-4.8,2.8c-4.2,3.3-7.9,7-11.3,11
		c0,0,0,0,0-0.1c-1.3-2-3-3.5-5.2-4.5c-2.2-0.9-4.5-1.1-6.6-0.6c0.4-0.9,0.7-1.9,0.7-3c0.3-1.5,0.3-2.9-0.2-4.3
		c-0.7-2.5-2.6-5.3-5-6.5c-2.5-1.3-5.6-2-8.4-1.1c-2.5,0.8-5.4,2.5-6.5,5c-6.8,15.7-12.3,31.8-15.8,48.5c-1,4.6-1.8,9.1-2.5,13.8
		c-0.4,2.9-0.6,5.8,1.1,8.4c1.3,2,3,3.5,5.2,4.5c1.2,0.5,2.3,0.7,3.6,0.8c0.8,1.9,2.1,3.7,3.8,4.8c-0.3,0.4-0.7,0.9-1,1.3
		c-1.1,1.4-2.2,2.8-3.3,4.1c-1.9,2.3-3.2,4.6-3.2,7.7c0,2.7,1.2,5.9,3.2,7.7c4.4,4.1,10.7,4.1,15.2,0.2c1.3,1.3,2.9,2.4,4.7,2.8
		c2.6,0.6,6.1,0.6,8.4-1.1c1.8-1.4,3.5-2.7,5.3-4.1c0.5,0.9,1.1,1.7,1.8,2.4c1.4,1.3,3,2.2,4.8,2.8c2.4,0.8,6.3,0.4,8.4-1.1
		c1.4-1,2.7-2,4.1-3c0.4,0.6,0.8,1.2,1.4,1.6c2.1,1.9,4.8,3.3,7.7,3.2c3-0.1,5.5-1.2,7.7-3.2c1.4-1.3,2.8-2.4,4.3-3.6
		c1.6-1.2,3.3-2.4,5-3.6c0.4,0.9,0.8,1.8,1.5,2.6c3.2,4.2,9.4,5.7,14.1,2.8l28.4-17.4c2.4-1.5,4.3-3.8,5-6.5
		C197,193,196.7,189.6,195.2,187.2L195.2,187.2z"/>
	<path class="st3" d="M74.1,135.3c-0.7-5.4-0.5-10.9,0.6-16.2c0.6-2.6,1.3-5.1,2.3-7.5c0.5-1.2,1-2.6,1.7-3.7c0.3-0.5,0.4-0.7,1-0.7
		c0.3,0,0.7,0.3,0.9,0.5c0.6,0.4,1.2,0.8,1.7,1.3c3.7,3.1,7.3,6.5,9.8,10.6c1.1,1.8,2,3.6,2.7,5.6c0.4,0.9,0.7,1.8,1,2.7
		c0.3,0.7,0.5,1.5,1.3,1.7c0.9,0.3,2.1,0,3,0.1c1.1,0,2.1,0.1,3.2,0.2c0.8,0.1,1.6,0.2,2.4,0.4c1,0.2,2.1,0.7,3.2,0.6
		c2.2-0.1,3.4-2.5,4.8-3.9c1.8-1.8,3.7-3.4,5.8-4.7c2.2-1.4,4.5-2.7,6.8-3.7c2.4-0.9,4.8-1.5,7.3-1.9c1.2-0.2,2.4-0.4,3.7-0.7
		c0.6-0.1,1.2-0.2,1.8-0.3c0.7-0.1,1.5-0.4,2,0.3c0.6,0.9,0.5,2.4,0.5,3.3c0,1.2-0.1,2.4-0.3,3.7c-0.5,4.4-1.1,8.9-3.1,12.9
		c-1.9,3.7-4.9,6.7-7.9,9.6c-0.6,0.5,0.3,1.4,0.8,0.8c2.8-2.7,5.7-5.5,7.6-8.9c2-3.5,2.8-7.4,3.3-11.3c0.3-2.3,0.7-4.7,0.7-7
		c0-1.5-0.1-4.9-2.2-4.9c-1.1,0-2.3,0.4-3.4,0.6c-1.4,0.2-2.8,0.5-4.3,0.8c-2.6,0.5-5.2,1.1-7.7,2.2c-4.7,2-9.1,5-12.7,8.7
		c-0.8,0.9-1.6,2.2-2.6,2.9c-1.3,0.9-2.9,0.1-4.3-0.2c-1.9-0.4-3.9-0.6-5.9-0.6c-0.6,0-1.2,0-1.8,0c-0.8-0.1-0.9-0.1-1.2-0.9
		c-0.4-1.1-0.8-2.2-1.2-3.3c-0.8-1.9-1.7-3.8-2.8-5.5c-2.7-4.3-6.5-7.9-10.4-11.1c-0.9-0.7-2-1.6-3.2-1.7c-1.1-0.1-1.5,0.9-2,1.7
		c-1.3,2.9-2.5,5.9-3.3,8.9c-1.6,6.1-2.1,12.5-1.2,18.8C73,136.1,74.2,136.1,74.1,135.3L74.1,135.3z"/>
	<path class="st3" d="M91.1,186.4c12.8-5.3,27.7-7.7,37.4-18.5c2.7-3,4.7-6.4,5.9-10.2c0.2-0.7-0.9-1.1-1.2-0.3
		c-2.1,7-7.4,12.3-13.4,16.1c-3.3,2.1-6.7,3.7-10.3,5.1c-3,1.2-6.2,2-9.2,3.1c-3.2,1.1-6.3,2.2-9.5,3.5
		C90.1,185.5,90.4,186.7,91.1,186.4L91.1,186.4z"/>
	<path class="st3" d="M73.1,134.9c-3.2,3.7-6,7.8-8,12.4c-2,4.7-3,9.7-3.2,14.8c-0.1,2.7,0.2,5.4,0.4,8.1c0.1,2.1,0.1,4.1-0.5,6.1
		c-1.3,3.8-3.1,7.5-4.6,11.3c-1.5,3.9-2.6,8.2,0,11.9c0.4,0.6,1.5,0,1-0.6c-2.3-3.3-1.3-7.3,0.1-10.7c1.4-3.7,3.2-7.2,4.5-10.9
		c1.5-4.1,0.5-8.2,0.4-12.5c-0.1-5,0.7-10.1,2.3-14.8c1.8-5.3,4.9-10,8.5-14.2C74.5,135.2,73.6,134.3,73.1,134.9z"/>
	<path class="st3" d="M88.5,165.4c1.7-2.3,3.7-4.2,6.3-5.5c3-1.5,6.3-2.1,9.6-2.5c0.8-0.1,0.8-1.3,0-1.2c-3.5,0.4-7,1.1-10.2,2.7
		c-2.7,1.4-4.9,3.5-6.7,6C87,165.4,88.1,166,88.5,165.4L88.5,165.4z"/>
	<path class="st3" d="M131.4,146.5c7.1-4,16-5.2,24.1-5.1c3.7,0.1,7.4,0.6,10.9,1.8c4,1.5,7.8,3.6,11.3,6c3.3,2.3,6.6,5.1,8.9,8.4
		c2.7,3.9,4.6,8.3,5.6,12.9c1.4,6.4,1.1,13.2-0.5,19.5c-1.1,4.2-3,8.3-5.4,11.9c-2.6,4-6,7.1-9.9,9.8c-7.6,5.3-16.4,8.7-25.4,10.8
		c-20.4,4.7-41.5,2.4-62.2,1.4c-17.9-0.8-37.7-1.2-53.5,8.6c-1.8,1.1-3.5,2.3-5.1,3.7l1,0.6c5.7-21.6,23-38.7,43.6-46.4
		c11.5-4.3,23.9-6,36.2-5.3c8.8,0.5,17.3,2.6,26,3.5c4.5,0.5,9.2,0.7,13.8-0.1c3.5-0.6,7.1-2,9-5.2c0.4-0.7-0.7-1.3-1-0.6
		c-1.8,3-5.3,4.2-8.6,4.7c-4.1,0.7-8.4,0.5-12.6,0.1c-8.6-0.8-17.1-3-25.7-3.6c-23.3-1.5-47.2,5.6-64,22.2
		c-8.4,8.4-14.8,18.8-17.8,30.3c-0.2,0.6,0.6,1,1,0.6c15-12.4,35.9-12.8,54.3-12.1c21.3,0.8,43,3.6,64.1-0.9
		c9.1-1.9,18.1-5.2,25.9-10.3c3.8-2.5,7.4-5.3,10.2-9s5-7.8,6.4-12.2c2-6.1,2.6-12.8,1.8-19.1c-1.1-8.8-5.2-16.8-11.9-22.5
		c-6-5.2-13.6-9.5-21.6-10.6c-8.1-1.1-16.8-0.2-24.5,2.6c-1.8,0.6-3.5,1.4-5.2,2.3C130.1,145.8,130.7,146.9,131.4,146.5L131.4,146.5
		z"/>
	<path class="st3" d="M60.5,202.2c-1.1,1.4-9.1,9.6-3.9,10.3c1.3,0.2,3.7-0.6,4,1.2c0.3,1.5-1,3-1.1,4.4c-0.2,3,2.8,3.2,5,2.7
		c0.7-0.2,0.4-1.4-0.3-1.2c-1,0.3-3,0.7-3.4-0.7c-0.5-1.3,0.6-2.8,0.9-3.9c0.5-2.1-0.5-3.6-2.7-3.7c-0.7,0-2.8,0.4-3-0.5
		c-0.1-0.7,0.6-1.7,1-2.3c1.3-1.9,2.9-3.6,4.3-5.4C61.9,202.4,61,201.6,60.5,202.2z"/>
	<path class="st3" d="M125.5,142.2c0.4-1.5,0.6-3.1,0.9-4.6c0.1-0.5-0.3-0.8-0.7-0.7c-2,0.3-3.9,0.7-5.9,1l0.7,0.7
		c1-6.4,6.1-11.8,12.4-13.4c0.7-0.2,0.4-1.4-0.3-1.2c-6.6,1.8-12.1,7.4-13.2,14.3c-0.1,0.5,0.3,0.8,0.7,0.7c2-0.3,3.9-0.7,5.9-1
		l-0.7-0.7c-0.3,1.5-0.4,3.1-0.9,4.6C124.1,142.7,125.3,143,125.5,142.2L125.5,142.2z"/>
</g>
</svg>
